<svg width="20" height="20" viewBox="0 0 20 20" fill="none" xmlns="http://www.w3.org/2000/svg">
<g clip-path="url(#clip0_1_524)">
<mask id="mask0_1_524" style="mask-type:luminance" maskUnits="userSpaceOnUse" x="0" y="0" width="20" height="20">
<path d="M0 0H20V20H0V0Z" fill="white"/>
</mask>
<g mask="url(#mask0_1_524)">
<path fill-rule="evenodd" clip-rule="evenodd" d="M8.38233 1.66667C4.67338 1.66667 1.66667 4.67338 1.66667 8.38233C1.66667 12.0913 4.67338 15.098 8.38233 15.098C12.0913 15.098 15.098 12.0913 15.098 8.38233C15.098 4.67338 12.0913 1.66667 8.38233 1.66667ZM0 8.38233C0 3.75291 3.75291 0 8.38233 0C13.0118 0 16.7647 3.75291 16.7647 8.38233C16.7647 10.3969 16.054 12.2456 14.8697 13.6912L19.7559 18.5774C20.0813 18.9028 20.0813 19.4305 19.7559 19.7559C19.4305 20.0813 18.9028 20.0813 18.5774 19.7559L13.6912 14.8697C12.2456 16.054 10.3969 16.7647 8.38233 16.7647C3.75291 16.7647 0 13.0118 0 8.38233Z" fill="#5A5652"/>
</g>
</g>
<defs>
<clipPath id="clip0_1_524">
<rect width="20" height="20" fill="white"/>
</clipPath>
</defs>
</svg>
